<?xml version="1.0" encoding="utf-8"?>
<!-- Generator: Adobe Illustrator 23.0.3, SVG Export Plug-In . SVG Version: 6.00 Build 0)  -->
<svg version="1.1" id="TEXT" xmlns="http://www.w3.org/2000/svg" xmlns:xlink="http://www.w3.org/1999/xlink" x="0px" y="0px"
	 viewBox="0 0 295.66 87.74" style="enable-background:new 0 0 295.66 87.74;" xml:space="preserve">
<style type="text/css">
	.st0{fill:#FFFFFF;}
</style>
<g>
	<g>
		<g>
			<polygon class="st0" points="210.05,82.61 93.08,82.61 93.08,62.6 94.01,62.6 94.01,81.68 209.11,81.68 209.11,62.6 210.05,62.6 
							"/>
		</g>
	</g>
	<g>
		<g>
			<polygon class="st0" points="210.05,20.96 209.11,20.96 209.11,9 94.01,9 94.01,20.96 93.08,20.96 93.08,8.07 210.05,8.07 			"/>
		</g>
	</g>
	<g>
		<g>
			<path class="st0" d="M293.77,26.18c-0.18,0.49-0.49,0.88-0.92,1.19c-0.44,0.31-0.9,0.45-1.43,0.45c-0.69,0-1.26-0.24-1.76-0.73
				c-0.49-0.49-0.73-1.07-0.73-1.75c0-0.69,0.24-1.27,0.73-1.76c0.49-0.49,1.06-0.73,1.76-0.73c0.53,0,1,0.15,1.43,0.46
				c0.44,0.32,0.74,0.71,0.91,1.2l1.63-0.57c-0.29-0.84-0.81-1.53-1.54-2.04c-0.74-0.51-1.56-0.78-2.44-0.78
				c-1.16,0-2.16,0.42-2.98,1.24c-0.17,0.17-0.31,0.35-0.44,0.54c-0.13-0.18-0.28-0.37-0.44-0.54c-0.82-0.82-1.83-1.24-2.98-1.24
				c-0.88,0-1.7,0.26-2.42,0.77c-0.73,0.51-1.25,1.18-1.55,2.01l1.62,0.59c0.18-0.48,0.49-0.88,0.92-1.19
				c0.43-0.3,0.9-0.45,1.43-0.45c0.69,0,1.26,0.24,1.75,0.73c0.49,0.49,0.73,1.07,0.73,1.75c0,0.69-0.24,1.27-0.73,1.76
				c-0.49,0.49-1.06,0.73-1.75,0.73c-0.53,0-1-0.15-1.44-0.46c-0.44-0.32-0.74-0.71-0.91-1.2l-1.63,0.57
				c0.29,0.84,0.81,1.53,1.54,2.04c0.74,0.51,1.56,0.78,2.44,0.78c1.16,0,2.16-0.42,2.98-1.24c0.17-0.17,0.31-0.35,0.44-0.54
				c0.13,0.18,0.28,0.37,0.44,0.54c0.82,0.82,1.83,1.24,2.98,1.24c0.88,0,1.7-0.26,2.42-0.77c0.73-0.51,1.25-1.18,1.55-2.01
				L293.77,26.18z"/>
		</g>
		<g>
			<g>
				<path class="st0" d="M275.38,53.59c-6.53,0-11.85-5.31-11.85-11.85s5.31-11.85,11.85-11.85c6.53,0,11.85,5.31,11.85,11.85
					S281.91,53.59,275.38,53.59z M275.38,32.34c-5.19,0-9.41,4.22-9.41,9.41s4.22,9.41,9.41,9.41c5.19,0,9.41-4.22,9.41-9.41
					S280.57,32.34,275.38,32.34z"/>
			</g>
		</g>
		<g>
			<g>
				<path class="st0" d="M258.97,32.9h-0.07l-4.14,2.23l-0.62-2.45l5.2-2.79h2.75v23.6h-3.11V32.9z"/>
			</g>
		</g>
	</g>
	<g>
		<path class="st0" d="M2.54,31.98l14.84,16.2v-15.4h2.3v21.08L4.83,37.83v15.23h-2.3V31.98z"/>
		<path class="st0" d="M30.19,32.78h10.69v2.21H32.6v5.82h8.28v2.24H32.6v7.77h8.28v2.24H30.19V32.78z"/>
		<path class="st0" d="M70.16,42.59c0,0.23,0,0.45,0,0.68c0,6.47-3.94,10.33-10.13,10.33c-2.01,0-3.75-0.45-5.11-1.19
			c-3.32-1.82-5.22-5.16-5.22-9.28c0-3.38,1.08-6.1,3.26-8.17c1.84-1.76,4.28-2.64,7.21-2.64c3.86,0,6.72,1.39,8.62,4.25l-2.01,1.62
			c-1.48-2.47-3.66-3.69-6.52-3.69c-4.71,0-7.94,3.49-7.94,8.62c0,4.85,3.32,8.28,7.94,8.28c4.03,0,7.04-2.7,7.32-6.67h-5.79v-2.16
			H70.16z"/>
		<path class="st0" d="M96.99,50.48c-2.07,2.01-4.85,3.12-7.69,3.12c-2.86,0-5.62-1.13-7.66-3.12c-2.07-2.01-3.18-4.62-3.18-7.52
			c0-2.89,1.11-5.53,3.18-7.55c2.04-1.99,4.79-3.09,7.66-3.09c2.87,0,5.65,1.11,7.69,3.09c2.07,2.01,3.15,4.65,3.15,7.55
			C100.14,45.85,99.04,48.49,96.99,50.48z M95.18,48.86c1.59-1.59,2.44-3.63,2.44-5.9c0-2.27-0.85-4.37-2.44-5.96
			c-1.59-1.59-3.63-2.44-5.87-2.44c-2.24,0-4.31,0.85-5.87,2.44C81.85,38.62,81,40.69,81,42.96c0,2.27,0.85,4.28,2.44,5.9
			c1.62,1.62,3.63,2.47,5.87,2.47C91.52,51.33,93.56,50.48,95.18,48.86z"/>
		<path class="st0" d="M119.46,34.54c-2.13,0-4.28,0.91-5.79,2.47c-1.56,1.62-2.33,3.6-2.33,5.99c0,1.87,0.45,3.46,1.39,4.79
			c1.62,2.3,4.08,3.6,6.84,3.6c2.55,0,4.79-1.05,6.64-3.21v3.21c-2.01,1.45-4.37,2.21-6.84,2.21c-2.16,0-4.23-0.65-5.99-1.87
			c-2.95-2.04-4.57-5.11-4.57-8.71c0-3.15,1.05-5.67,3.18-7.74c2.07-1.99,4.57-2.98,7.54-2.98c2.41,0,4.57,0.74,6.67,2.18v3.15
			C124.25,35.5,122.1,34.54,119.46,34.54z"/>
		<path class="st0" d="M136.02,32.78h2.41v20.28h-2.41V32.78z"/>
		<path class="st0" d="M164.64,53.06h-2.61l-2.64-6.21h-7.91l-2.64,6.21h-2.61l9.19-21.08L164.64,53.06z M152.19,44.78h6.47
			l-3.23-7.46L152.19,44.78z"/>
		<path class="st0" d="M172.41,32.78h3.89c3.8,0,6.72,0,9.19,1.9c2.33,1.79,3.55,4.62,3.55,8.25s-1.22,6.44-3.55,8.23
			c-2.35,1.82-5.02,1.9-8.31,1.9c-0.28,0-0.6,0-0.88,0h-3.89V32.78z M176.39,50.79c3.46,0,5.87-0.03,7.57-1.45
			c1.65-1.36,2.55-3.57,2.55-6.44c0-2.86-0.88-5.02-2.55-6.41c-1.67-1.42-4.08-1.48-7.57-1.48h-1.53v15.77H176.39z"/>
		<path class="st0" d="M216.24,50.48c-2.07,2.01-4.85,3.12-7.69,3.12c-2.86,0-5.62-1.13-7.66-3.12c-2.07-2.01-3.18-4.62-3.18-7.52
			c0-2.89,1.11-5.53,3.18-7.55c2.04-1.99,4.79-3.09,7.66-3.09c2.87,0,5.65,1.11,7.69,3.09c2.07,2.01,3.15,4.65,3.15,7.55
			C219.39,45.85,218.28,48.49,216.24,50.48z M214.42,48.86c1.59-1.59,2.44-3.63,2.44-5.9c0-2.27-0.85-4.37-2.44-5.96
			c-1.59-1.59-3.63-2.44-5.87-2.44c-2.24,0-4.31,0.85-5.87,2.44c-1.59,1.62-2.44,3.69-2.44,5.96c0,2.27,0.85,4.28,2.44,5.9
			c1.62,1.62,3.63,2.47,5.87,2.47C210.77,51.33,212.81,50.48,214.42,48.86z"/>
		<path class="st0" d="M229,32.78h4.14c0.23,0,0.43,0,0.62,0c1.93,0,3.4,0.06,4.65,1.02c1.16,0.91,1.9,2.53,1.9,4.51
			c0,3.32-1.9,5.08-5.47,5.08c-0.14,0-0.28,0-0.43,0l7.74,9.67h-3.06l-7.4-9.67h-0.34v9.67H229V32.78z M231.36,41.6h1.84
			c3.18,0,4.74-0.45,4.74-3.26c0-2.95-1.53-3.52-4.74-3.52h-1.84V41.6z"/>
	</g>
	<g>
		<path class="st0" d="M223.36,62.82h-1.48v-0.53h3.6v0.53h-1.49v4.33h-0.63V62.82z"/>
		<path class="st0" d="M225.95,62.02h0.63v2.18h0.01c0.1-0.18,0.26-0.34,0.45-0.45c0.19-0.11,0.41-0.18,0.65-0.18
			c0.47,0,1.22,0.29,1.22,1.49v2.08h-0.63v-2.01c0-0.56-0.21-1.04-0.81-1.04c-0.41,0-0.74,0.29-0.85,0.64
			c-0.04,0.09-0.04,0.18-0.04,0.3v2.11h-0.63V62.02z"/>
		<path class="st0" d="M230.16,65.52c0.01,0.86,0.56,1.21,1.2,1.21c0.45,0,0.73-0.08,0.97-0.18l0.11,0.45
			c-0.22,0.1-0.61,0.22-1.16,0.22c-1.08,0-1.72-0.71-1.72-1.76s0.62-1.88,1.64-1.88c1.14,0,1.44,1,1.44,1.65
			c0,0.13-0.01,0.23-0.02,0.3H230.16z M232.02,65.06c0.01-0.4-0.17-1.03-0.88-1.03c-0.64,0-0.92,0.59-0.97,1.03H232.02z"/>
		<path class="st0" d="M234.95,64.79c0-0.45-0.01-0.81-0.03-1.14h0.57l0.03,0.6h0.01c0.26-0.43,0.67-0.68,1.24-0.68
			c0.84,0,1.48,0.71,1.48,1.78c0,1.26-0.76,1.88-1.59,1.88c-0.46,0-0.87-0.2-1.08-0.55h-0.01v1.9h-0.63V64.79z M235.58,65.72
			c0,0.09,0.01,0.18,0.03,0.26c0.12,0.44,0.5,0.74,0.95,0.74c0.67,0,1.06-0.55,1.06-1.35c0-0.7-0.37-1.3-1.04-1.3
			c-0.43,0-0.84,0.31-0.96,0.79c-0.02,0.08-0.04,0.17-0.04,0.26V65.72z"/>
		<path class="st0" d="M242.22,65.37c0,1.29-0.9,1.85-1.74,1.85c-0.95,0-1.67-0.69-1.67-1.8c0-1.17,0.76-1.85,1.73-1.85
			C241.54,63.57,242.22,64.3,242.22,65.37z M239.45,65.41c0,0.76,0.44,1.34,1.06,1.34c0.61,0,1.06-0.57,1.06-1.36
			c0-0.59-0.3-1.34-1.05-1.34C239.77,64.05,239.45,64.74,239.45,65.41z"/>
		<path class="st0" d="M243.08,63.65l0.46,1.78c0.1,0.39,0.2,0.75,0.26,1.11h0.02c0.08-0.35,0.2-0.73,0.31-1.1l0.57-1.78h0.53
			l0.54,1.75c0.13,0.42,0.23,0.79,0.31,1.14h0.02c0.06-0.35,0.15-0.72,0.27-1.13l0.5-1.75h0.63l-1.13,3.49h-0.58l-0.53-1.67
			c-0.12-0.39-0.22-0.74-0.31-1.15h-0.01c-0.09,0.42-0.2,0.78-0.32,1.15l-0.56,1.66h-0.58l-1.05-3.49H243.08z"/>
		<path class="st0" d="M248.27,65.52c0.01,0.86,0.56,1.21,1.2,1.21c0.46,0,0.73-0.08,0.97-0.18l0.11,0.45
			c-0.22,0.1-0.61,0.22-1.16,0.22c-1.08,0-1.72-0.71-1.72-1.76s0.62-1.88,1.64-1.88c1.14,0,1.44,1,1.44,1.65
			c0,0.13-0.01,0.23-0.02,0.3H248.27z M250.13,65.06c0.01-0.4-0.17-1.03-0.88-1.03c-0.64,0-0.92,0.59-0.97,1.03H250.13z"/>
		<path class="st0" d="M251.53,64.74c0-0.41-0.01-0.76-0.03-1.09h0.56l0.02,0.69h0.03c0.16-0.47,0.54-0.76,0.97-0.76
			c0.07,0,0.12,0.01,0.18,0.02v0.6c-0.07-0.01-0.13-0.02-0.22-0.02c-0.45,0-0.76,0.34-0.85,0.82c-0.01,0.09-0.03,0.19-0.03,0.3v1.86
			h-0.63V64.74z"/>
		<path class="st0" d="M258.58,65.37c0,1.29-0.9,1.85-1.74,1.85c-0.95,0-1.67-0.69-1.67-1.8c0-1.17,0.76-1.85,1.73-1.85
			C257.9,63.57,258.58,64.3,258.58,65.37z M255.81,65.41c0,0.76,0.44,1.34,1.06,1.34c0.61,0,1.06-0.57,1.06-1.36
			c0-0.59-0.3-1.34-1.05-1.34C256.13,64.05,255.81,64.74,255.81,65.41z"/>
		<path class="st0" d="M259.45,67.15v-3.01h-0.49v-0.48h0.49v-0.17c0-0.49,0.11-0.94,0.4-1.22c0.24-0.23,0.56-0.33,0.85-0.33
			c0.22,0,0.42,0.05,0.54,0.1l-0.09,0.49c-0.09-0.04-0.22-0.08-0.4-0.08c-0.54,0-0.68,0.48-0.68,1.01v0.19h0.84v0.48h-0.84v3.01
			H259.45z"/>
		<path class="st0" d="M263.64,65.26h0.01c0.09-0.12,0.21-0.27,0.31-0.4l1.03-1.21h0.76l-1.35,1.44l1.54,2.06h-0.77l-1.21-1.67
			l-0.33,0.36v1.31h-0.63v-5.12h0.63V65.26z"/>
		<path class="st0" d="M266.52,64.6c0-0.36-0.01-0.66-0.03-0.95h0.56l0.04,0.58h0.01c0.17-0.33,0.58-0.66,1.16-0.66
			c0.48,0,1.23,0.29,1.23,1.49v2.09h-0.63v-2.01c0-0.56-0.21-1.03-0.81-1.03c-0.42,0-0.74,0.3-0.85,0.65
			c-0.03,0.08-0.04,0.19-0.04,0.3v2.1h-0.63V64.6z"/>
		<path class="st0" d="M273.54,65.37c0,1.29-0.9,1.85-1.74,1.85c-0.95,0-1.67-0.69-1.67-1.8c0-1.17,0.76-1.85,1.73-1.85
			C272.87,63.57,273.54,64.3,273.54,65.37z M270.77,65.41c0,0.76,0.44,1.34,1.06,1.34c0.61,0,1.06-0.57,1.06-1.36
			c0-0.59-0.3-1.34-1.05-1.34C271.1,64.05,270.77,64.74,270.77,65.41z"/>
		<path class="st0" d="M274.31,63.65l0.46,1.78c0.1,0.39,0.2,0.75,0.26,1.11h0.02c0.08-0.35,0.2-0.73,0.31-1.1l0.57-1.78h0.53
			l0.54,1.75c0.13,0.42,0.23,0.79,0.31,1.14h0.02c0.06-0.35,0.15-0.72,0.27-1.13l0.5-1.75h0.63l-1.13,3.49h-0.58l-0.53-1.67
			c-0.12-0.39-0.22-0.74-0.31-1.15h-0.01c-0.09,0.42-0.2,0.78-0.32,1.15l-0.56,1.66h-0.58l-1.05-3.49H274.31z"/>
		<path class="st0" d="M279.37,62.02H280v5.12h-0.63V62.02z"/>
		<path class="st0" d="M281.42,65.52c0.01,0.86,0.56,1.21,1.2,1.21c0.46,0,0.73-0.08,0.97-0.18l0.11,0.45
			c-0.22,0.1-0.61,0.22-1.16,0.22c-1.08,0-1.72-0.71-1.72-1.76s0.62-1.88,1.64-1.88c1.14,0,1.44,1,1.44,1.65
			c0,0.13-0.01,0.23-0.02,0.3H281.42z M283.28,65.06c0.01-0.4-0.17-1.03-0.88-1.03c-0.64,0-0.92,0.59-0.97,1.03H283.28z"/>
		<path class="st0" d="M287.55,62.02v4.22c0,0.31,0.01,0.66,0.03,0.9h-0.57l-0.03-0.61h-0.01c-0.19,0.39-0.62,0.69-1.19,0.69
			c-0.84,0-1.49-0.71-1.49-1.78c-0.01-1.16,0.71-1.88,1.57-1.88c0.53,0,0.89,0.25,1.05,0.53h0.01v-2.09H287.55z M286.92,65.07
			c0-0.08-0.01-0.19-0.03-0.27c-0.09-0.4-0.44-0.74-0.92-0.74c-0.66,0-1.05,0.58-1.05,1.35c0,0.71,0.35,1.29,1.03,1.29
			c0.43,0,0.82-0.28,0.93-0.76c0.02-0.09,0.03-0.17,0.03-0.27V65.07z"/>
		<path class="st0" d="M291.62,63.65c-0.01,0.25-0.03,0.53-0.03,0.96v2.03c0,0.8-0.16,1.29-0.5,1.59c-0.34,0.32-0.83,0.42-1.27,0.42
			c-0.42,0-0.88-0.1-1.16-0.29l0.16-0.48c0.23,0.14,0.59,0.27,1.02,0.27c0.65,0,1.13-0.34,1.13-1.22v-0.39h-0.01
			c-0.19,0.32-0.57,0.58-1.11,0.58c-0.87,0-1.49-0.74-1.49-1.7c0-1.18,0.77-1.85,1.57-1.85c0.61,0,0.94,0.32,1.09,0.61h0.01
			l0.03-0.53H291.62z M290.96,65.03c0-0.11-0.01-0.2-0.04-0.29c-0.12-0.37-0.43-0.67-0.89-0.67c-0.61,0-1.04,0.51-1.04,1.32
			c0,0.69,0.35,1.26,1.03,1.26c0.39,0,0.74-0.25,0.88-0.65c0.04-0.11,0.05-0.23,0.05-0.34V65.03z"/>
		<path class="st0" d="M292.99,65.52c0.01,0.86,0.56,1.21,1.2,1.21c0.46,0,0.73-0.08,0.97-0.18l0.11,0.45
			c-0.22,0.1-0.61,0.22-1.16,0.22c-1.08,0-1.72-0.71-1.72-1.76s0.62-1.88,1.64-1.88c1.14,0,1.44,1,1.44,1.65
			c0,0.13-0.01,0.23-0.02,0.3H292.99z M294.85,65.06c0.01-0.4-0.17-1.03-0.88-1.03c-0.64,0-0.92,0.59-0.97,1.03H294.85z"/>
	</g>
	<g>
	</g>
	<g>
	</g>
	<g>
	</g>
	<g>
	</g>
</g>
</svg>
