<?xml version="1.0" encoding="utf-8"?>
<!-- Generator: Adobe Illustrator 23.0.3, SVG Export Plug-In . SVG Version: 6.00 Build 0)  -->
<svg version="1.1" id="wireframes" xmlns="http://www.w3.org/2000/svg" xmlns:xlink="http://www.w3.org/1999/xlink" x="0px" y="0px"
	 viewBox="0 0 281.87 280.85" style="enable-background:new 0 0 281.87 280.85;" xml:space="preserve">
<style type="text/css">
	.st0{fill:#5BADAD;}
</style>
<g>
	<path class="st0" d="M15.48,143.19C15.5,72.85,72.1,16.3,142.53,16.27c70.71-0.03,127.22,56.8,127.17,127.9
		c-0.04,69.55-57.45,126.47-127.39,126.3C72.04,270.29,15.46,213.51,15.48,143.19z M142.39,22.25
		C74.9,22.48,21.33,76.28,21.46,143.71c0.12,67.13,54.42,120.98,121.75,120.76c67.28-0.22,120.74-54.83,120.5-123.08
		C263.48,75.86,208.66,22.03,142.39,22.25z"/>
	<path class="st0" d="M95.2,143.03c0-17.48-0.02-34.97,0.01-52.45c0.01-6.92,1.47-7.74,7.61-4.31
		c31.49,17.59,62.98,35.18,94.45,52.81c1.8,1.01,4.41,1.55,4.31,4.27c-0.1,2.6-2.6,3.22-4.43,4.25
		c-31.62,17.69-63.26,35.36-94.9,53.02c-5.54,3.09-7.03,2.23-7.04-4.13C95.17,178.67,95.2,160.85,95.2,143.03z M101.52,92.37
		c-0.18,1.54-0.35,2.33-0.35,3.12c-0.01,31.49,0.04,62.98-0.07,94.46c-0.02,5.38,2.33,3.21,4.69,1.89
		c27.43-15.34,54.88-30.68,82.3-46.04c1.25-0.7,2.82-1.06,3.7-2.97C161.93,126.14,132.08,109.45,101.52,92.37z"/>
</g>
</svg>
